
v -0.000000 -0.250000 -0.000000
v 0.000000 -0.250000 0.500000
v -0.250000 -0.250000 0.433012
v 0.000000 0.250000 0.000000
v -0.250000 0.250000 0.433013
v 0.000000 0.250000 0.500000
v -0.433012 -0.250000 0.250000
v -0.433012 0.250000 0.250000
v -0.500000 -0.250000 0.000000
v -0.500000 0.250000 0.000000
v -0.500000 -0.250000 -0.500000
v -0.500000 0.250000 -0.500000
v 0.500000 -0.250000 -0.500000
v -0.000000 -0.250000 -0.500000
v -0.000000 0.250000 -0.500000
v 0.500000 0.250000 -0.500000
v 0.500000 -0.250000 -0.000000
v 0.500000 0.250000 -0.000000
v 0.433013 -0.250000 0.249999
v 0.433013 0.250000 0.250000
v 0.250001 -0.250000 0.433012
v 0.250001 0.250000 0.433013
vt 0.7500 0.2500
vt 0.7500 0.4900
vt 0.8700 0.4578
vt 0.2500 0.2500
vt 0.3700 0.4578
vt 0.2500 0.4900
vt 0.0833 1.0000
vt 0.0000 0.5000
vt 0.0833 0.5000
vt 0.9578 0.3700
vt 0.4578 0.3700
vt 0.1667 1.0000
vt 0.0833 0.5000
vt 0.1667 0.5000
vt 0.9900 0.2500
vt 0.4900 0.2500
vt 0.2500 1.0000
vt 0.1667 0.5000
vt 0.2500 0.5000
vt 0.9578 0.1300
vt 0.4578 0.1300
vt 0.3333 1.0000
vt 0.2500 0.5000
vt 0.3333 0.5000
vt 0.7500 0.5000
vt 0.5833 0.5000
vt 0.5833 1.0000
vt 0.2500 1.0000
vt 0.7500 1.0000
vt 0.5422 0.1300
vt 0.5100 0.2500
vt 0.0100 0.2500
vt 0.0422 0.1300
vt 0.6667 0.5000
vt 0.5422 0.3700
vt 0.0422 0.3700
vt 0.8333 1.0000
vt 0.7500 0.5000
vt 0.8333 0.5000
vt 0.6300 0.4578
vt 0.1300 0.4578
vt 0.9167 1.0000
vt 0.8333 0.5000
vt 0.9167 0.5000
vt 1.0000 1.0000
vt 0.9167 0.5000
vt 1.0000 0.5000
vt 0.0000 1.0000
vt 0.0833 1.0000
vt 0.1667 1.0000
vt 0.6667 1.0000
vt 0.7500 1.0000
vt 0.8333 1.0000
vt 0.9167 1.0000
vn -0.0000 -1.0000 -0.0000
vn 0.0000 1.0000 0.0000
vn -0.2588 -0.0000 0.9659
vn -0.7071 -0.0000 0.7071
vn -0.9659 -0.0000 0.2588
vn -0.0000 -0.7071 -0.7071
vn -0.0000 0.7071 -0.7071
vn -1.0000 -0.0000 0.0000
vn 1.0000 -0.0000 -0.0000
vn 0.9659 -0.0000 0.2588
vn 0.7071 -0.0000 0.7071
vn 0.2588 -0.0000 0.9659
usemtl None
s 1
f 1/1/1 2/2/1 3/3/1
f 4/4/2 5/5/2 6/6/2
f 6/7/3 3/8/3 2/9/3
f 1/1/1 3/3/1 7/10/1
f 4/4/2 8/11/2 5/5/2
f 5/12/4 7/13/4 3/14/4
f 1/1/1 7/10/1 9/15/1
f 4/4/2 10/16/2 8/11/2
f 8/17/5 9/18/5 7/19/5
f 1/1/1 9/15/1 11/20/6
f 4/4/2 12/21/7 10/16/2
f 10/22/8 11/23/8 9/24/8
f 13/25/6 1/1/1 14/26/6
f 15/27/7 12/28/7 4/4/2
f 16/29/7 13/25/6 14/26/6 15/27/7
f 1/1/1 13/30/6 17/31/1
f 4/4/2 18/32/2 16/33/7
f 16/29/9 17/34/9 13/25/9
f 1/1/1 17/31/1 19/35/1
f 4/4/2 20/36/2 18/32/2
f 18/37/10 19/38/10 17/39/10
f 1/1/1 19/35/1 21/40/1
f 4/4/2 22/41/2 20/36/2
f 20/42/11 21/43/11 19/44/11
f 1/1/1 21/40/1 2/2/1
f 4/4/2 6/6/2 22/41/2
f 22/45/12 2/46/12 21/47/12
f 6/7/3 5/48/3 3/8/3
f 5/12/4 8/49/4 7/13/4
f 8/17/5 10/50/5 9/18/5
f 10/22/8 12/28/8 11/23/8
f 11/23/6 14/26/6 1/1/1
f 15/27/7 4/4/2 16/33/7
f 16/29/9 18/51/9 17/34/9
f 18/37/10 20/52/10 19/38/10
f 20/42/11 22/53/11 21/43/11
f 22/45/12 6/54/12 2/46/12
f 15/27/7 14/26/6 11/23/6 12/28/7
